<svg width="25" height="26" viewBox="0 0 25 26" fill="none" xmlns="http://www.w3.org/2000/svg">
<path d="M16.3873 20.0396L9.34863 13L16.3926 5.95513L16.3988 5.9489L16.4048 5.94246C16.5967 5.7366 16.7011 5.46432 16.6961 5.18299C16.6912 4.90166 16.5772 4.63324 16.3782 4.43427C16.1793 4.23531 15.9108 4.12134 15.6295 4.11638C15.3482 4.11142 15.0759 4.21584 14.87 4.40766L14.8636 4.41368L14.8574 4.41992L7.04486 12.2324L7.04464 12.2326C6.84128 12.4363 6.72705 12.7123 6.72705 13C6.72705 13.2878 6.84128 13.5638 7.04464 13.7674L7.04486 13.7676L14.8521 21.5749C14.9501 21.6781 15.0675 21.7611 15.1976 21.8191C15.3308 21.8784 15.4746 21.9103 15.6204 21.9129C15.7662 21.9155 15.9111 21.8887 16.0463 21.8341C16.1815 21.7794 16.3043 21.6981 16.4075 21.595C16.5106 21.4919 16.5919 21.3691 16.6465 21.2339C16.7011 21.0986 16.7279 20.9538 16.7254 20.808C16.7228 20.6622 16.6909 20.5184 16.6315 20.3852C16.5735 20.2551 16.4906 20.1377 16.3873 20.0396Z" fill="#253696" stroke="#253696"/>
</svg>
