<svg width="26" height="26" viewBox="0 0 26 26" fill="none" xmlns="http://www.w3.org/2000/svg">
<path d="M23.0781 6.375C23.0231 6.30898 22.9543 6.25587 22.8765 6.21942C22.7987 6.18296 22.7138 6.16407 22.6279 6.16406H6.70996L6.08789 2.73926C6.06342 2.60425 5.99235 2.4821 5.88705 2.39412C5.78176 2.30614 5.64893 2.2579 5.51172 2.25781H3.09668C2.94128 2.25781 2.79224 2.31954 2.68236 2.42943C2.57247 2.53931 2.51074 2.68835 2.51074 2.84375C2.51074 2.99915 2.57247 3.14819 2.68236 3.25807C2.79224 3.36796 2.94128 3.42969 3.09668 3.42969H5.02246L7.54297 17.291C7.62199 17.7281 7.83495 18.1298 8.15234 18.4404C7.76878 18.7468 7.48225 19.1578 7.32746 19.6237C7.17267 20.0896 7.15625 20.5903 7.28019 21.0653C7.40413 21.5403 7.66312 21.9692 8.02579 22.3001C8.38846 22.6309 8.83927 22.8496 9.32363 22.9295C9.808 23.0094 10.3051 22.9472 10.7549 22.7504C11.2046 22.5536 11.5877 22.2306 11.8576 21.8206C12.1276 21.4106 12.2729 20.9311 12.276 20.4402C12.2791 19.9493 12.1398 19.4681 11.875 19.0547H16.9746C16.671 19.5299 16.5341 20.0926 16.5857 20.6541C16.6373 21.2157 16.8744 21.7441 17.2595 22.156C17.6446 22.5679 18.1559 22.8399 18.7127 22.929C19.2696 23.0182 19.8402 22.9194 20.3347 22.6483C20.8292 22.3773 21.2193 21.9493 21.4437 21.4319C21.668 20.9146 21.7137 20.3372 21.5736 19.791C21.4335 19.2448 21.1155 18.7608 20.6699 18.4152C20.2242 18.0697 19.6762 17.8824 19.1123 17.8828H9.65625C9.42755 17.8828 9.20608 17.8026 9.03047 17.6561C8.85486 17.5096 8.73625 17.3061 8.69531 17.0811L8.34375 15.1484H19.9033C20.4065 15.1486 20.8937 14.9721 21.2801 14.6498C21.6665 14.3275 21.9275 13.8798 22.0176 13.3848L23.2041 6.85449C23.2194 6.77022 23.2161 6.68361 23.1943 6.60077C23.1726 6.51792 23.1329 6.44086 23.0781 6.375ZM11.1045 20.4219C11.1045 20.6923 11.0243 20.9566 10.8741 21.1814C10.7239 21.4063 10.5103 21.5815 10.2605 21.685C10.0107 21.7885 9.73579 21.8155 9.47058 21.7628C9.20537 21.71 8.96176 21.5798 8.77056 21.3886C8.57935 21.1974 8.44914 20.9538 8.39639 20.6886C8.34363 20.4234 8.37071 20.1485 8.47419 19.8987C8.57767 19.6489 8.7529 19.4353 8.97774 19.2851C9.20257 19.1349 9.4669 19.0547 9.73731 19.0547C10.0999 19.0547 10.4477 19.1987 10.7041 19.4551C10.9605 19.7115 11.1045 20.0593 11.1045 20.4219ZM20.4795 20.4219C20.4795 20.6923 20.3993 20.9566 20.2491 21.1814C20.0989 21.4063 19.8853 21.5815 19.6355 21.685C19.3857 21.7885 19.1108 21.8155 18.8456 21.7628C18.5804 21.71 18.3368 21.5798 18.1456 21.3886C17.9544 21.1974 17.8241 20.9538 17.7714 20.6886C17.7186 20.4234 17.7457 20.1485 17.8492 19.8987C17.9527 19.6489 18.1279 19.4353 18.3527 19.2851C18.5776 19.1349 18.8419 19.0547 19.1123 19.0547C19.4749 19.0547 19.8227 19.1987 20.0791 19.4551C20.3354 19.7115 20.4795 20.0593 20.4795 20.4219ZM20.8643 13.1748C20.8233 13.3998 20.7047 13.6033 20.5291 13.7498C20.3535 13.8964 20.132 13.9766 19.9033 13.9766H8.13086L6.92383 7.33594H21.9258L20.8643 13.1748Z" fill="white"/>
</svg>
